<svg width="50"  viewBox="0 0 90 90"  fill="grey" xmlns="http://www.w3.org/2000/svg">
                    <path d="M73.125 33.75C70.2261 33.8272 67.4147 32.7528 65.3062 30.7619C63.1978 28.7709 61.964 26.0257 61.875 23.1272C61.9274 21.0577 62.5641 19.0452 63.7116 17.3222L70.7906 6.78936C71.0626 6.42721 71.4151 6.13331 71.8203 5.9309C72.2254 5.72848 72.6721 5.62311 73.125 5.62311C73.5779 5.62311 74.0246 5.72848 74.4297 5.9309C74.8349 6.13331 75.1874 6.42721 75.4594 6.78936L82.4484 17.1844C83.643 18.9416 84.3114 21.0033 84.375 23.1272C84.286 26.0257 83.0522 28.7709 80.9438 30.7619C78.8353 32.7528 76.0239 33.8272 73.125 33.75ZM73.125 13.3959L68.4675 20.3231C67.8855 21.1471 67.5499 22.1196 67.5 23.1272C67.6632 24.5044 68.326 25.7738 69.3628 26.6949C70.3995 27.6161 71.7382 28.1248 73.125 28.1248C74.5118 28.1248 75.8505 27.6161 76.8872 26.6949C77.924 25.7738 78.5868 24.5044 78.75 23.1272C78.687 22.065 78.321 21.0431 77.6953 20.1825L73.125 13.3959ZM66.0937 84.375H23.9062C19.3755 84.3798 15.0045 82.701 11.6419 79.6644C8.27931 76.6278 6.16497 72.4501 5.70935 67.9422C5.25373 63.4344 6.48934 58.9181 9.1763 55.2701C11.8633 51.622 15.8099 49.1025 20.25 48.2006C21.4484 42.5244 24.5615 37.4326 29.0676 33.7786C33.5736 30.1246 39.1986 28.1305 45 28.1305C50.8014 28.1305 56.4264 30.1246 60.9324 33.7786C65.4385 37.4326 68.5516 42.5244 69.75 48.2006C74.1901 49.1025 78.1367 51.622 80.8237 55.2701C83.5107 58.9181 84.7463 63.4344 84.2906 67.9422C83.835 72.4501 81.7207 76.6278 78.3581 79.6644C74.9955 82.701 70.6245 84.3798 66.0937 84.375ZM45 33.75C40.1982 33.7545 35.5636 35.5138 31.9683 38.6968C28.373 41.8797 26.0649 46.2669 25.4784 51.0328L25.1972 53.3166L22.905 53.4966C19.6404 53.7451 16.5995 55.2502 14.422 57.6952C12.2445 60.1403 11.1002 63.3345 11.2299 66.606C11.3597 69.8775 12.7532 72.9712 15.1174 75.2361C17.4817 77.501 20.6322 78.7607 23.9062 78.75H66.0937C69.3678 78.7607 72.5183 77.501 74.8826 75.2361C77.2468 72.9712 78.6404 69.8775 78.7701 66.606C78.8998 63.3345 77.7555 60.1403 75.578 57.6952C73.4006 55.2502 70.3596 53.7451 67.095 53.4966L64.8028 53.3166L64.5244 51.0328C63.9366 46.2669 61.6278 41.88 58.0322 38.6972C54.4366 35.5144 49.802 33.755 45 33.75Z" fill="#BAD4EB"/>
                    </svg>